
<?xml version="1.0" standalone="no"?><!DOCTYPE svg PUBLIC "-//W3C//DTD SVG 1.1//EN" "http://www.w3.org/Graphics/SVG/1.1/DTD/svg11.dtd"><svg t="1488615365805" class="icon" style="" viewBox="0 0 1024 1024" version="1.1" xmlns="http://www.w3.org/2000/svg" p-id="2024" xmlns:xlink="http://www.w3.org/1999/xlink" width="200" height="200"><defs><style type="text/css"></style></defs><path d="M859.136 164.864 164.864 164.864c-19.84 0-35.904 16.064-35.904 35.904l0 514.688c0 19.84 16.064 35.904 35.904 35.904l47.872 0 0 71.808c0 2.496 0.256 4.928 0.704 7.232 0.32 1.664 0.896 3.136 1.472 4.736 0.256 0.64 0.384 1.408 0.64 2.048 0.576 1.344 1.408 2.624 2.112 3.904 0.448 0.704 0.704 1.536 1.216 2.176 1.152 1.728 2.56 3.328 3.968 4.864 0.128 0.128 0.256 0.32 0.384 0.512 6.4 6.4 15.232 10.368 24.96 10.496 0.128 0 0.32 0.064 0.448 0.064 9.92 0 18.88-4.032 25.408-10.496l97.216-97.216 487.872 0c19.84 0 35.904-16.064 35.904-35.904L895.04 200.768C895.04 180.928 878.976 164.864 859.136 164.864zM332.48 535.936c-39.68 0-71.808-32.128-71.808-71.808S292.8 392.32 332.48 392.32s71.808 32.128 71.808 71.808S372.096 535.936 332.48 535.936zM512 535.936c-39.68 0-71.808-32.128-71.808-71.808S472.32 392.32 512 392.32s71.808 32.128 71.808 71.808S551.68 535.936 512 535.936zM691.52 535.936c-39.68 0-71.808-32.128-71.808-71.808s32.128-71.808 71.808-71.808 71.808 32.128 71.808 71.808C763.392 503.808 731.2 535.936 691.52 535.936z" p-id="2025"></path></svg>