
<?xml version="1.0" standalone="no"?><!DOCTYPE svg PUBLIC "-//W3C//DTD SVG 1.1//EN" "http://www.w3.org/Graphics/SVG/1.1/DTD/svg11.dtd"><svg t="1488817896956" class="icon" style="" viewBox="0 0 1024 1024" version="1.1" xmlns="http://www.w3.org/2000/svg" p-id="3743" xmlns:xlink="http://www.w3.org/1999/xlink" width="200" height="200"><defs><style type="text/css"></style></defs><path d="M849.048 412.692a73.153 73.153 0 0 0-15.21-23.283c-6.553-6.763-14.195-12.079-22.717-15.801-8.861-3.869-18.272-5.83-27.972-5.83a69.494 69.494 0 0 0-27.968 5.83c-8.52 3.72-16.164 9.036-22.717 15.801-6.521 6.731-11.639 14.564-15.213 23.283-3.688 9.003-5.557 18.555-5.557 28.39a74.954 74.954 0 0 0 3.83 23.708l0.912 2.742L618 540.928l-65.324-157.573 2.414-1.872c17.764-13.775 28.369-35.641 28.369-58.489 0-9.829-1.871-19.381-5.561-28.39a73.192 73.192 0 0 0-15.213-23.281c-6.553-6.765-14.195-12.081-22.717-15.8a69.486 69.486 0 0 0-27.969-5.831 69.478 69.478 0 0 0-27.968 5.831c-8.521 3.72-16.164 9.036-22.718 15.801a73.16 73.16 0 0 0-15.21 23.282c-3.689 9.004-5.56 18.555-5.56 28.388 0 22.888 10.628 44.771 28.43 58.541l2.419 1.871-65.299 157.522-98.513-73.448 0.91-2.741a74.926 74.926 0 0 0 3.814-23.656c0-9.833-1.871-19.386-5.56-28.391a73.189 73.189 0 0 0-15.21-23.282c-6.551-6.764-14.194-12.08-22.717-15.801-8.861-3.869-18.271-5.83-27.969-5.83a69.494 69.494 0 0 0-27.968 5.83c-8.521 3.721-16.165 9.037-22.718 15.801a73.178 73.178 0 0 0-15.209 23.283c-3.69 9.006-5.561 18.558-5.561 28.39 0 9.833 1.871 19.385 5.561 28.39a73.203 73.203 0 0 0 15.209 23.282c6.552 6.763 14.196 12.079 22.718 15.8a69.44 69.44 0 0 0 24.462 5.745l3.103 0.152 50.661 248.447c1.348 6.611 7.223 11.41 13.971 11.41h413.938c6.746 0 12.623-4.799 13.971-11.41l50.66-248.449 3.098-0.156a69.448 69.448 0 0 0 24.377-5.74c8.521-3.721 16.164-9.036 22.717-15.799a73.123 73.123 0 0 0 15.209-23.282c3.689-9 5.56-18.551 5.56-28.39-0.001-9.839-1.871-19.391-5.559-28.391z m-571.661 51.921a14.23 14.23 0 0 0 3.738 18.712l122.604 91.413c2.434 1.814 5.484 2.813 8.588 2.813a14.176 14.176 0 0 0 13.107-8.783L502.557 382.7c2.984-7.201-0.256-15.322-7.376-18.488-15.867-7.059-26.12-23.237-26.12-41.218 0-24.693 19.262-44.783 42.938-44.783 23.677 0 42.94 20.09 42.94 44.783 0 17.951-10.23 34.119-26.064 41.191-7.105 3.174-10.336 11.291-7.355 18.479l77.146 186.104a14.178 14.178 0 0 0 9.389 8.288c1.197 0.329 2.447 0.495 3.715 0.495 3.107 0 6.158-0.998 8.592-2.813l122.543-91.367a14.228 14.228 0 0 0 3.729-18.723c-4.201-7.063-6.422-15.211-6.422-23.566 0-24.695 19.262-44.786 42.938-44.786s42.94 20.091 42.94 44.786c0 24.694-19.264 44.784-42.94 44.784-2.72 0-5.454-0.27-8.126-0.803a14.324 14.324 0 0 0-2.809-0.279c-6.736 0-12.604 4.8-13.951 11.413l-50.895 249.594H316.724L265.826 496.18c-1.349-6.613-7.218-11.413-13.955-11.413-0.942 0-1.895 0.096-2.832 0.283a41.544 41.544 0 0 1-8.19 0.816c-23.675 0-42.937-20.09-42.937-44.784 0-24.695 19.261-44.786 42.937-44.786s42.938 20.091 42.938 44.786c0.001 8.342-2.212 16.479-6.4 23.531z" p-id="3744"></path></svg>