<?xml version="1.0" standalone="no"?><!DOCTYPE svg PUBLIC "-//W3C//DTD SVG 1.1//EN" "http://www.w3.org/Graphics/SVG/1.1/DTD/svg11.dtd"><svg t="1489399407660" class="icon" style="" viewBox="0 0 1024 1024" version="1.1" xmlns="http://www.w3.org/2000/svg" p-id="4742" xmlns:xlink="http://www.w3.org/1999/xlink" width="200" height="200"><defs><style type="text/css"></style></defs><path d="M521.789 195.514c-2.555-2.392-5.985-3.872-9.775-3.872-3.792 0-7.217 1.477-9.772 3.872L297.979 387.739c-1.38 1.295-1.908 3.365-1.175 5.23 0.75 1.862 2.535 2.997 4.42 2.997l132.15 0 0 195.387c0 3.65 1.402 7.3 4.182 10.055 2.795 2.8 6.445 4.2 10.095 4.2l128.707 0c3.65 0 7.3-1.4 10.095-4.2 2.775-2.755 4.18-6.405 4.18-10.055L590.633 395.966l132.155 0c1.88 0 3.67-1.135 4.415-2.997 0.735-1.865 0.205-3.937-1.175-5.23L521.789 195.514 521.789 195.514zM899.878 666.698l-125.81-87.305-78.62 0 131.895 106.735-144.99-1.91c-4.2 0-10.245 4.06-12.145 7.42l-40.28 97.41L394.079 789.048l-40.275-97.41c-1.885-3.36-7.93-7.42-12.147-7.42L197.522 684.218l131.037-104.825-78.637 0-125.79 87.31c-19.65 11.785-31.447 38.905-26.177 60.345l23.317 127.9c5.292 21.415 28.675 38.915 51.972 38.915l677.513 0c23.28 0 46.68-17.5 51.975-38.915l23.3-127.9C931.328 705.608 919.543 678.478 899.878 666.698L899.878 666.698z" p-id="4743"></path></svg>